<svg width="27" height="26" viewBox="0 0 27 26" fill="none" xmlns="http://www.w3.org/2000/svg">
<path d="M16.619 16.1658L17.1444 15.6305L17.1444 15.6305L16.619 16.1658ZM1.00229 17.784L0.252286 17.784L1.00229 17.784ZM1.33675 22.782L2.07972 22.6795L1.33675 22.782ZM25.6632 22.782L24.9203 22.6795L25.6632 22.782ZM11.5849 1.53494L11.9722 2.17724L11.5849 1.53494ZM15.415 1.53494L15.8023 0.89265L15.8023 0.89265L15.415 1.53494ZM22.9666 24.25H20.8516V25.75H22.9666V24.25ZM18.661 22.1136V19.2272H17.161V22.1136H18.661ZM18.661 19.2272C18.661 17.8755 18.1138 16.582 17.1444 15.6305L16.0936 16.701C16.7787 17.3734 17.161 18.2824 17.161 19.2272H18.661ZM17.1444 15.6305C16.1755 14.6795 14.8643 14.1476 13.5 14.1476V15.6476C14.4754 15.6476 15.4081 16.0281 16.0936 16.701L17.1444 15.6305ZM13.5 14.1476C12.1357 14.1476 10.8245 14.6795 9.85561 15.6305L10.9063 16.701C11.5919 16.0281 12.5246 15.6476 13.5 15.6476V14.1476ZM9.85561 15.6305C8.88624 16.582 8.33904 17.8755 8.33904 19.2272H9.83904C9.83904 18.2824 10.2213 17.3734 10.9063 16.701L9.85561 15.6305ZM8.33904 19.2272V22.1136H9.83904V19.2272H8.33904ZM6.1484 24.25H4.03343V25.75H6.1484V24.25ZM11.1977 0.89265C9.54727 1.88771 7.09372 3.53808 4.88787 5.70324L5.9386 6.77373C8.03005 4.72088 10.3762 3.13947 11.9722 2.17724L11.1977 0.89265ZM22.1121 5.70324C19.9063 3.53808 17.4527 1.88771 15.8023 0.89265L15.0278 2.17724C16.6238 3.13947 18.9699 4.72088 21.0614 6.77373L22.1121 5.70324ZM2.07972 22.6795C1.91153 21.4606 1.75229 19.7793 1.75229 17.784L0.252286 17.784C0.252286 19.8581 0.417747 21.6086 0.593794 22.8845L2.07972 22.6795ZM25.2477 17.784C25.2477 19.7793 25.0885 21.4606 24.9203 22.6795L26.4062 22.8845C26.5823 21.6086 26.7477 19.8581 26.7477 17.784H25.2477ZM4.88787 5.70324C2.50138 8.0457 1.30903 9.95584 0.741145 11.8912C0.18312 13.793 0.252286 15.6659 0.252286 17.784L1.75229 17.784C1.75229 15.5725 1.69765 13.959 2.18046 12.3136C2.65341 10.7017 3.66654 9.00388 5.9386 6.77373L4.88787 5.70324ZM26.7477 17.784C26.7477 15.6659 26.8169 13.793 26.2588 11.8912C25.6909 9.95583 24.4986 8.04569 22.1121 5.70324L21.0614 6.77373C23.3334 9.00387 24.3466 10.7017 24.8195 12.3136C25.3023 13.959 25.2477 15.5725 25.2477 17.784H26.7477ZM4.03343 24.25C3.0087 24.25 2.20306 23.5735 2.07972 22.6795L0.593794 22.8845C0.832632 24.6155 2.35941 25.75 4.03343 25.75V24.25ZM8.33904 22.1136C8.33904 23.2804 7.37148 24.25 6.1484 24.25V25.75C8.17345 25.75 9.83904 24.135 9.83904 22.1136H8.33904ZM20.8516 24.25C19.6285 24.25 18.661 23.2804 18.661 22.1136H17.161C17.161 24.135 18.8265 25.75 20.8516 25.75V24.25ZM22.9666 25.75C24.6406 25.75 26.1674 24.6156 26.4062 22.8845L24.9203 22.6795C24.7969 23.5735 23.9913 24.25 22.9666 24.25V25.75ZM11.9722 2.17724C12.917 1.60759 14.083 1.60759 15.0278 2.17724L15.8023 0.89265C14.3811 0.0357837 12.6189 0.035783 11.1977 0.89265L11.9722 2.17724Z" fill="#DCDDE9"/>
</svg>
