<svg width="24" height="25" viewBox="0 0 24 25" fill="none" xmlns="http://www.w3.org/2000/svg">
<path d="M14.1213 14.2686L14.6516 13.7382L14.6516 13.7382L14.1213 14.2686ZM3.49997 15.3899L2.74997 15.3899L3.49997 15.3899ZM3.72745 18.853L4.47066 18.7524L3.72745 18.853ZM20.2725 18.853L19.5293 18.7524L20.2725 18.853ZM10.6975 4.13077L11.09 4.76984L10.6975 4.13077ZM13.3024 4.13077L13.695 3.4917L13.695 3.4917L13.3024 4.13077ZM18.4384 19.6399H17V21.1399H18.4384V19.6399ZM15.75 18.3899V16.3899H14.25V18.3899H15.75ZM15.75 16.3899C15.75 15.3953 15.3549 14.4415 14.6516 13.7382L13.591 14.7989C14.0129 15.2209 14.25 15.7932 14.25 16.3899H15.75ZM14.6516 13.7382C13.9484 13.035 12.9945 12.6399 12 12.6399V14.1399C12.5967 14.1399 13.169 14.3769 13.591 14.7989L14.6516 13.7382ZM12 12.6399C11.0054 12.6399 10.0516 13.035 9.34831 13.7382L10.409 14.7989C10.8309 14.3769 11.4032 14.1399 12 14.1399V12.6399ZM9.34831 13.7382C8.64505 14.4415 8.24996 15.3953 8.24996 16.3899H9.74996C9.74996 15.7932 9.98702 15.2209 10.409 14.7989L9.34831 13.7382ZM8.24996 16.3899V18.3899H9.74996V16.3899H8.24996ZM6.99996 19.6399H5.56152V21.1399H6.99996V19.6399ZM10.3049 3.4917C9.17352 4.18667 7.48778 5.34141 5.96963 6.85956L7.03029 7.92022C8.43484 6.51567 10.0135 5.43109 11.09 4.76984L10.3049 3.4917ZM18.0303 6.85956C16.5121 5.34141 14.8264 4.18667 13.695 3.4917L12.9099 4.76984C13.9864 5.43109 15.5651 6.51567 16.9696 7.92022L18.0303 6.85956ZM4.47066 18.7524C4.3574 17.916 4.24997 16.761 4.24997 15.3899L2.74997 15.3899C2.74997 16.8384 2.86338 18.0613 2.98423 18.9537L4.47066 18.7524ZM19.75 15.3899C19.75 16.761 19.6425 17.916 19.5293 18.7524L21.0157 18.9537C21.1366 18.0614 21.25 16.8384 21.25 15.3899H19.75ZM5.96963 6.85956C4.32836 8.50083 3.49107 9.85676 3.09111 11.2455C2.70085 12.6005 2.74997 13.9358 2.74997 15.3899L4.24997 15.3899C4.24997 13.8439 4.21489 12.7635 4.53252 11.6606C4.84046 10.5914 5.50317 9.44734 7.03029 7.92022L5.96963 6.85956ZM21.25 15.3899C21.25 13.9358 21.2991 12.6005 20.9088 11.2455C20.5088 9.85675 19.6716 8.50082 18.0303 6.85956L16.9696 7.92022C18.4967 9.44733 19.1595 10.5914 19.4674 11.6606C19.785 12.7635 19.75 13.844 19.75 15.3899H21.25ZM5.56152 19.6399C4.97993 19.6399 4.53837 19.2524 4.47066 18.7524L2.98423 18.9537C3.16285 20.2726 4.30764 21.1399 5.56152 21.1399V19.6399ZM8.24996 18.3899C8.24996 19.0802 7.69032 19.6399 6.99996 19.6399V21.1399C8.51875 21.1399 9.74996 19.9087 9.74996 18.3899H8.24996ZM17 19.6399C16.3096 19.6399 15.75 19.0802 15.75 18.3899H14.25C14.25 19.9087 15.4812 21.1399 17 21.1399V19.6399ZM18.4384 21.1399C19.6923 21.1399 20.8371 20.2726 21.0157 18.9537L19.5293 18.7524C19.4616 19.2524 19.02 19.6399 18.4384 19.6399V21.1399ZM11.09 4.76984C11.6538 4.42352 12.3461 4.42352 12.9099 4.76984L13.695 3.4917C12.6496 2.84957 11.3503 2.84957 10.3049 3.4917L11.09 4.76984Z" fill="#E33342"/>
</svg>
