<svg width="52" height="53" viewBox="0 0 52 53" fill="none" xmlns="http://www.w3.org/2000/svg">
<path d="M51.1412 4.3454V16.4159H38.2477V52.9018H23.0224V16.4159H10.266V4.3454H51.1412Z" fill="url(#paint0_linear_1_1019)"/>
<path d="M10.266 16.4159V4.3454V0.97406L0 9.48688L10.266 19.7529V16.4159Z" fill="url(#paint1_linear_1_1019)"/>
<path d="M25.8846 28.4812C26.4369 28.4812 26.8846 28.0335 26.8846 27.4812V17.4107C26.8846 16.8584 26.4369 16.4107 25.8846 16.4107H13.2297C12.6775 16.4107 12.2297 16.8584 12.2297 17.4107V27.4812C12.2297 28.0335 12.6775 28.4812 13.2297 28.4812H25.8846Z" fill="#11131F"/>
<path d="M25.5707 15.1848C25.5707 14.3381 26.5573 13.8746 27.209 14.415L34.9918 20.8687C35.4452 21.2446 35.4771 21.9291 35.0606 22.3455L27.2778 30.1283C26.6479 30.7582 25.5707 30.3121 25.5707 29.4212V15.1848Z" fill="#11131F"/>
<defs>
<linearGradient id="paint0_linear_1_1019" x1="0" y1="26.9379" x2="51.1412" y2="26.9379" gradientUnits="userSpaceOnUse">
<stop stop-color="#E33342"/>
<stop offset="1" stop-color="#B61267"/>
</linearGradient>
<linearGradient id="paint1_linear_1_1019" x1="0" y1="26.9379" x2="51.1412" y2="26.9379" gradientUnits="userSpaceOnUse">
<stop stop-color="#E33342"/>
<stop offset="1" stop-color="#B61267"/>
</linearGradient>
</defs>
</svg>
