<svg width="22" height="21" viewBox="0 0 22 21" fill="none" xmlns="http://www.w3.org/2000/svg">
<path d="M18.0833 6.38989C18.0833 5.97568 17.7475 5.63989 17.3333 5.63989C16.9191 5.63989 16.5833 5.97568 16.5833 6.38989H18.0833ZM16.5833 12.3899C16.5833 12.8041 16.9191 13.1399 17.3333 13.1399C17.7475 13.1399 18.0833 12.8041 18.0833 12.3899H16.5833ZM14.3333 8.63989C13.9191 8.63989 13.5833 8.97568 13.5833 9.38989C13.5833 9.80411 13.9191 10.1399 14.3333 10.1399V8.63989ZM20.3333 10.1399C20.7475 10.1399 21.0833 9.80411 21.0833 9.38989C21.0833 8.97568 20.7475 8.63989 20.3333 8.63989V10.1399ZM16.5833 6.38989V12.3899H18.0833V6.38989H16.5833ZM14.3333 10.1399H20.3333V8.63989H14.3333V10.1399ZM3.83333 20.14H14.8333V18.64H3.83333V20.14ZM9.33333 12.14C8.35355 12.14 6.2476 12.115 4.38114 12.6375C3.444 12.8998 2.50137 13.3169 1.78445 14.0007C1.04523 14.7057 0.583328 15.6607 0.583328 16.89H2.08333C2.08333 16.0789 2.37143 15.5137 2.81971 15.0862C3.29029 14.6374 3.97266 14.3095 4.78551 14.082C6.41906 13.6247 8.3131 13.64 9.33333 13.64V12.14ZM9.33333 13.64C10.3536 13.64 12.2476 13.6247 13.8811 14.082C14.694 14.3095 15.3764 14.6374 15.8469 15.0862C16.2952 15.5137 16.5833 16.0789 16.5833 16.89H18.0833C18.0833 15.6607 17.6214 14.7057 16.8822 14.0007C16.1653 13.3169 15.2227 12.8998 14.2855 12.6375C12.4191 12.115 10.3131 12.14 9.33333 12.14V13.64ZM0.583328 16.89C0.583328 18.6849 2.0384 20.14 3.83333 20.14V18.64C2.86683 18.64 2.08333 17.8565 2.08333 16.89H0.583328ZM16.5833 16.89C16.5833 17.8565 15.7998 18.64 14.8333 18.64V20.14C16.6283 20.14 18.0833 18.6849 18.0833 16.89H16.5833ZM12.5833 5.38989C12.5833 7.18482 11.1283 8.63989 9.33333 8.63989V10.1399C11.9567 10.1399 14.0833 8.01325 14.0833 5.38989H12.5833ZM9.33333 8.63989C7.5384 8.63989 6.08333 7.18482 6.08333 5.38989H4.58333C4.58333 8.01324 6.70998 10.1399 9.33333 10.1399V8.63989ZM6.08333 5.38989C6.08333 3.59497 7.5384 2.13989 9.33333 2.13989V0.639893C6.70998 0.639893 4.58333 2.76654 4.58333 5.38989H6.08333ZM9.33333 2.13989C11.1283 2.13989 12.5833 3.59497 12.5833 5.38989H14.0833C14.0833 2.76654 11.9567 0.639893 9.33333 0.639893V2.13989Z" fill="#DCDDE9"/>
</svg>
