<svg width="19" height="20" viewBox="0 0 19 20" fill="none" xmlns="http://www.w3.org/2000/svg">
<path d="M4.91666 9.38989C4.91666 9.80411 5.25244 10.1399 5.66666 10.1399C6.08087 10.1399 6.41666 9.80411 6.41666 9.38989H4.91666ZM12.9167 9.38989C12.9167 9.80411 13.2524 10.1399 13.6667 10.1399C14.0809 10.1399 14.4167 9.80411 14.4167 9.38989H12.9167ZM6.41666 5.38989C6.41666 3.59497 7.87173 2.13989 9.66666 2.13989V0.639893C7.0433 0.639893 4.91666 2.76654 4.91666 5.38989H6.41666ZM9.66666 2.13989C11.4616 2.13989 12.9167 3.59497 12.9167 5.38989H14.4167C14.4167 2.76654 12.29 0.639893 9.66666 0.639893V2.13989ZM4.91666 5.38989V9.38989H6.41666V5.38989H4.91666ZM12.9167 5.38989V9.38989H14.4167V5.38989H12.9167ZM5.66666 7.13989H13.6666V5.63989H5.66666V7.13989ZM9.66665 18.1399C8.07738 18.1399 6.83143 18.0786 5.84856 17.905C4.86838 17.7318 4.20949 17.4566 3.74704 17.0726C2.8403 16.3197 2.41666 14.9131 2.41666 11.8899H0.916656C0.916656 14.8926 1.29471 16.986 2.78881 18.2266C3.52678 18.8394 4.4681 19.1843 5.5876 19.3821C6.70441 19.5794 8.05762 19.6399 9.66665 19.6399V18.1399ZM16.9167 11.8899C16.9167 14.9131 16.493 16.3197 15.5863 17.0726C15.1238 17.4566 14.4649 17.7318 13.4847 17.905C12.5019 18.0786 11.2559 18.1399 9.66665 18.1399V19.6399C11.2757 19.6399 12.6289 19.5794 13.7457 19.3821C14.8652 19.1843 15.8065 18.8394 16.5445 18.2266C18.0386 16.986 18.4167 14.8926 18.4167 11.8899H16.9167ZM5.66666 5.63989C3.7764 5.63989 2.5714 6.88453 1.87966 8.18362C1.19163 9.47573 0.916656 10.9736 0.916656 11.8899H2.41666C2.41666 11.1961 2.64169 9.944 3.20365 8.88863C3.76191 7.84023 4.55691 7.13989 5.66666 7.13989V5.63989ZM13.6666 7.13989C14.7764 7.13989 15.5714 7.84023 16.1297 8.88863C16.6916 9.944 16.9167 11.1961 16.9167 11.8899H18.4167C18.4167 10.9736 18.1417 9.47573 17.4537 8.18362C16.7619 6.88453 15.5569 5.63989 13.6666 5.63989V7.13989Z" fill="#DCDDE9"/>
</svg>
