<svg width="20" height="21" viewBox="0 0 20 21" fill="none" xmlns="http://www.w3.org/2000/svg">
<path d="M14.2426 3.3188L14.7729 3.84913L14.7729 3.84913L14.2426 3.3188ZM13.8403 3.72112L14.3706 4.25145L14.3706 4.25145L13.8403 3.72112ZM17.071 4.73301L17.6014 4.20269L17.6014 4.20268L17.071 4.73301ZM15.6568 3.3188L15.1265 3.84913L15.1265 3.84913L15.6568 3.3188ZM16.6688 6.54949L17.1991 7.07982L17.1991 7.07982L16.6688 6.54949ZM17.071 6.14723L16.5407 5.6169L16.5407 5.6169L17.071 6.14723ZM18 8.38989L18 7.63989L18 7.63989L18 8.38989ZM17.4313 8.38989L17.4313 9.13989L17.4313 9.13989L17.4313 8.38989ZM17.071 14.6325L17.6014 14.1022L17.6014 14.1022L17.071 14.6325ZM16.6688 14.2302L16.1384 14.7606L16.1384 14.7606L16.6688 14.2302ZM15.6568 17.4609L15.1265 16.9306L15.1265 16.9306L15.6568 17.4609ZM17.071 16.0467L17.6014 16.5771L17.6014 16.5771L17.071 16.0467ZM13.8403 17.0587L14.3707 16.5283L14.3707 16.5283L13.8403 17.0587ZM14.2426 17.4609L13.7123 17.9913L13.7123 17.9913L14.2426 17.4609ZM5.75732 17.4609L6.28765 17.9913L6.28765 17.9913L5.75732 17.4609ZM6.1596 17.0587L6.68993 17.589L6.68993 17.589L6.1596 17.0587ZM2.92889 16.0467L3.45922 15.5164L3.45922 15.5164L2.92889 16.0467ZM4.34311 17.4609L3.81278 17.9913L3.81278 17.9913L4.34311 17.4609ZM3.33123 14.2302L3.86156 14.7605L3.86156 14.7605L3.33123 14.2302ZM2.92889 14.6325L3.45922 15.1628L3.45922 15.1628L2.92889 14.6325ZM2.56877 8.38989L2.56877 7.63989L2.56877 7.63989L2.56877 8.38989ZM2 8.38989L2 9.13989L2 9.13989L2 8.38989ZM2.92891 6.14723L2.39858 6.67756L2.39858 6.67756L2.92891 6.14723ZM3.33123 6.54955L3.86156 6.01922L3.86156 6.01922L3.33123 6.54955ZM4.34312 3.3188L4.87345 3.84913L4.87345 3.84913L4.34312 3.3188ZM2.92891 4.73302L3.45924 5.26335L3.45924 5.26335L2.92891 4.73302ZM6.15966 3.72112L5.62933 4.25145L5.62933 4.25145L6.15966 3.72112ZM5.75734 3.3188L6.28767 2.78847L6.28767 2.78847L5.75734 3.3188ZM7.31776 3.92219L7.60535 4.61486L7.60535 4.61486L7.31776 3.92219ZM3.53229 7.70766L4.22497 7.99524L4.22497 7.99524L3.53229 7.70766ZM3.53228 13.0721L4.22496 12.7845L4.22496 12.7845L3.53228 13.0721ZM7.31774 16.8576L7.60533 16.1649L7.60533 16.1649L7.31774 16.8576ZM12.6822 16.8576L12.3947 16.1649L12.3947 16.1649L12.6822 16.8576ZM16.4677 13.0721L17.1604 13.3597L17.1604 13.3597L16.4677 13.0721ZM16.4677 7.70764L15.775 7.99522L15.775 7.99522L16.4677 7.70764ZM12.6822 3.92218L12.3946 4.61485L12.3946 4.61485L12.6822 3.92218ZM11 0.639893H9V2.13989H11V0.639893ZM12.75 2.95868V2.38989H11.25V2.95868H12.75ZM13.7123 2.78847L13.31 3.19079L14.3706 4.25145L14.7729 3.84913L13.7123 2.78847ZM17.6014 4.20268L16.1871 2.78847L15.1265 3.84913L16.5407 5.26334L17.6014 4.20268ZM17.1991 7.07982L17.6014 6.67756L16.5407 5.6169L16.1384 6.01916L17.1991 7.07982ZM18 7.63989L17.4313 7.63989L17.4313 9.13989L18 9.13989L18 7.63989ZM19.75 11.3899V9.38989H18.25V11.3899H19.75ZM17.4312 13.1399H18V11.6399H17.4312V13.1399ZM17.6014 14.1022L17.1991 13.6999L16.1384 14.7606L16.5407 15.1628L17.6014 14.1022ZM16.1872 17.9913L17.6014 16.5771L16.5407 15.5164L15.1265 16.9306L16.1872 17.9913ZM13.31 17.589L13.7123 17.9913L14.7729 16.9306L14.3707 16.5283L13.31 17.589ZM12.75 18.3899V17.8211H11.25V18.3899H12.75ZM9 20.1399H11V18.6399H9V20.1399ZM7.25 17.8211V18.3899H8.75V17.8211H7.25ZM6.28765 17.9913L6.68993 17.589L5.62927 16.5283L5.22699 16.9306L6.28765 17.9913ZM2.39856 16.5771L3.81278 17.9913L4.87344 16.9306L3.45922 15.5164L2.39856 16.5771ZM2.8009 13.6998L2.39856 14.1022L3.45922 15.1628L3.86156 14.7605L2.8009 13.6998ZM2 13.1399H2.56879V11.6399H2V13.1399ZM0.25 9.38989V11.3899H1.75V9.38989H0.25ZM2.56877 7.63989L2 7.63989L2 9.13989L2.56877 9.13989L2.56877 7.63989ZM2.39858 6.67756L2.8009 7.07988L3.86156 6.01922L3.45924 5.6169L2.39858 6.67756ZM3.81279 2.78847L2.39858 4.20269L3.45924 5.26335L4.87345 3.84913L3.81279 2.78847ZM6.68999 3.19079L6.28767 2.78847L5.22701 3.84913L5.62933 4.25145L6.68999 3.19079ZM7.25 2.38989V2.95866H8.75V2.38989H7.25ZM7.60535 4.61486C8.23546 4.35325 8.75 3.73547 8.75 2.95866H7.25C7.25 3.03746 7.19029 3.16304 7.03018 3.22951L7.60535 4.61486ZM5.62933 4.25145C6.17517 4.7973 6.96899 4.87906 7.60535 4.61486L7.03018 3.22951C6.87601 3.29352 6.74939 3.2502 6.68999 3.19079L5.62933 4.25145ZM4.87345 3.84913C4.97108 3.7515 5.12937 3.7515 5.22701 3.84913L6.28767 2.78847C5.60425 2.10506 4.49621 2.10506 3.81279 2.78847L4.87345 3.84913ZM3.45924 5.6169C3.36161 5.51927 3.36161 5.36098 3.45924 5.26335L2.39858 4.20269C1.71516 4.8861 1.71516 5.99414 2.39858 6.67756L3.45924 5.6169ZM4.22497 7.99524C4.48917 7.35889 4.4074 6.56507 3.86156 6.01922L2.8009 7.07988C2.86031 7.13929 2.90363 7.2659 2.83962 7.42007L4.22497 7.99524ZM2.56877 9.13989C3.34558 9.13989 3.96335 8.62536 4.22497 7.99524L2.83962 7.42007C2.77315 7.58018 2.64757 7.63989 2.56877 7.63989V9.13989ZM1.75 9.38989C1.75 9.25182 1.86193 9.13989 2 9.13989V7.63989C1.0335 7.63989 0.25 8.42339 0.25 9.38989H1.75ZM2 11.6399C1.86193 11.6399 1.75 11.528 1.75 11.3899H0.25C0.25 12.3564 1.0335 13.1399 2 13.1399V11.6399ZM4.22496 12.7845C3.96335 12.1544 3.34559 11.6399 2.56879 11.6399V13.1399C2.64758 13.1399 2.77314 13.1996 2.83961 13.3597L4.22496 12.7845ZM3.86156 14.7605C4.40739 14.2147 4.48915 13.4209 4.22496 12.7845L2.83961 13.3597C2.90361 13.5138 2.8603 13.6404 2.8009 13.6998L3.86156 14.7605ZM3.45922 15.5164C3.36159 15.4188 3.36159 15.2605 3.45922 15.1628L2.39856 14.1022C1.71514 14.7856 1.71514 15.8936 2.39856 16.5771L3.45922 15.5164ZM5.22699 16.9306C5.12936 17.0282 4.97107 17.0282 4.87344 16.9306L3.81278 17.9913C4.49619 18.6747 5.60423 18.6747 6.28765 17.9913L5.22699 16.9306ZM7.60533 16.1649C6.96896 15.9007 6.17512 15.9825 5.62927 16.5283L6.68993 17.589C6.74934 17.5296 6.87597 17.4862 7.03016 17.5503L7.60533 16.1649ZM8.75 17.8211C8.75 17.0443 8.23545 16.4265 7.60533 16.1649L7.03016 17.5503C7.19028 17.6167 7.25 17.7423 7.25 17.8211H8.75ZM9 18.6399C8.86193 18.6399 8.75 18.528 8.75 18.3899H7.25C7.25 19.3564 8.0335 20.1399 9 20.1399V18.6399ZM11.25 18.3899C11.25 18.528 11.1381 18.6399 11 18.6399V20.1399C11.9665 20.1399 12.75 19.3564 12.75 18.3899H11.25ZM12.3947 16.1649C11.7645 16.4265 11.25 17.0443 11.25 17.8211H12.75C12.75 17.7423 12.8097 17.6167 12.9698 17.5503L12.3947 16.1649ZM14.3707 16.5283C13.8248 15.9825 13.031 15.9007 12.3947 16.1649L12.9698 17.5503C13.124 17.4863 13.2506 17.5296 13.31 17.589L14.3707 16.5283ZM15.1265 16.9306C15.0289 17.0282 14.8706 17.0282 14.7729 16.9306L13.7123 17.9913C14.3957 18.6747 15.5037 18.6747 16.1872 17.9913L15.1265 16.9306ZM16.5407 15.1628C16.6383 15.2605 16.6383 15.4188 16.5407 15.5164L17.6014 16.5771C18.2848 15.8936 18.2848 14.7856 17.6014 14.1022L16.5407 15.1628ZM15.775 12.7845C15.5108 13.4209 15.5926 14.2147 16.1384 14.7606L17.1991 13.6999C17.1397 13.6405 17.0964 13.5139 17.1604 13.3597L15.775 12.7845ZM17.4312 11.6399C16.6544 11.6399 16.0366 12.1544 15.775 12.7845L17.1604 13.3597C17.2269 13.1996 17.3524 13.1399 17.4312 13.1399V11.6399ZM18.25 11.3899C18.25 11.528 18.1381 11.6399 18 11.6399V13.1399C18.9665 13.1399 19.75 12.3564 19.75 11.3899H18.25ZM18 9.13989C18.1381 9.13989 18.25 9.25182 18.25 9.38989H19.75C19.75 8.42339 18.9665 7.63989 18 7.63989V9.13989ZM15.775 7.99522C16.0366 8.62535 16.6544 9.13989 17.4313 9.13989V7.63989C17.3524 7.63989 17.2269 7.58017 17.1604 7.42005L15.775 7.99522ZM16.1384 6.01916C15.5926 6.56502 15.5108 7.35886 15.775 7.99522L17.1604 7.42005C17.0964 7.26586 17.1397 7.13924 17.1991 7.07982L16.1384 6.01916ZM16.5407 5.26334C16.6383 5.36097 16.6383 5.51927 16.5407 5.6169L17.6014 6.67756C18.2848 5.99414 18.2848 4.8861 17.6014 4.20269L16.5407 5.26334ZM14.7729 3.84913C14.8706 3.7515 15.0289 3.7515 15.1265 3.84913L16.1871 2.78847C15.5037 2.10505 14.3957 2.10505 13.7123 2.78847L14.7729 3.84913ZM12.3946 4.61485C13.031 4.87904 13.8248 4.79728 14.3706 4.25145L13.31 3.19079C13.2506 3.25019 13.124 3.29351 12.9698 3.2295L12.3946 4.61485ZM11.25 2.95868C11.25 3.73548 11.7645 4.35325 12.3946 4.61485L12.9698 3.2295C12.8097 3.16304 12.75 3.03747 12.75 2.95868H11.25ZM9 0.639893C8.0335 0.639893 7.25 1.42339 7.25 2.38989H8.75C8.75 2.25182 8.86193 2.13989 9 2.13989V0.639893ZM11 2.13989C11.1381 2.13989 11.25 2.25182 11.25 2.38989H12.75C12.75 1.42339 11.9665 0.639893 11 0.639893V2.13989ZM11.25 10.3899C11.25 11.0802 10.6904 11.6399 10 11.6399V13.1399C11.5188 13.1399 12.75 11.9087 12.75 10.3899H11.25ZM10 11.6399C9.30964 11.6399 8.75 11.0802 8.75 10.3899H7.25C7.25 11.9087 8.48122 13.1399 10 13.1399V11.6399ZM8.75 10.3899C8.75 9.69954 9.30964 9.13989 10 9.13989V7.63989C8.48122 7.63989 7.25 8.87111 7.25 10.3899H8.75ZM10 9.13989C10.6904 9.13989 11.25 9.69954 11.25 10.3899H12.75C12.75 8.87111 11.5188 7.63989 10 7.63989V9.13989Z" fill="#DCDDE9"/>
</svg>
